<svg xmlns="http://www.w3.org/2000/svg" viewBox="0 0 256 256">
  <defs>
    <linearGradient id="bg" x1="0" x2="1" y1="0" y2="1">
      <stop offset="0%" stop-color="#38bdf8"/>
      <stop offset="65%" stop-color="#0ea5e9"/>
      <stop offset="100%" stop-color="#f472b6"/>
    </linearGradient>
    <linearGradient id="glass" x1="0" x2="0" y1="0" y2="1">
      <stop offset="0%" stop-color="#ffffff" stop-opacity="0.92"/>
      <stop offset="100%" stop-color="#dbeafe" stop-opacity="0.72"/>
    </linearGradient>
    <linearGradient id="water" x1="0" x2="0" y1="0" y2="1">
      <stop offset="0%" stop-color="#7dd3fc"/>
      <stop offset="100%" stop-color="#0ea5e9"/>
    </linearGradient>
  </defs>
  <rect width="256" height="256" rx="56" fill="url(#bg)"/>
  <rect x="24" y="24" width="208" height="208" rx="48" fill="#ffffff" fill-opacity="0.18"/>
  <g transform="translate(30 34)">
    <text x="0" y="52" font-size="46" font-family="Arial, Helvetica, sans-serif" font-weight="900" fill="#ffffff" letter-spacing="8">BİK</text>
    <g transform="translate(48 72)">
      <path d="M24 0h76c8 0 14 6 14 14v102c0 24-19 44-44 44H54c-25 0-44-20-44-44V14C10 6 16 0 24 0Z" fill="url(#glass)"/>
      <path d="M22 82h84v34c0 21-16 38-36 38H58c-21 0-36-17-36-38V88c0-3 0-6 0-6Z" fill="url(#water)"/>
      <ellipse cx="64" cy="82" rx="42" ry="8" fill="#bae6fd" fill-opacity="0.95"/>
      <path d="M64 -8c10 13 16 21 16 30a16 16 0 1 1-32 0c0-9 6-17 16-30Z" fill="#fdf2f8"/>
    </g>
  </g>
</svg>
